<svg width="27" height="18" viewBox="0 0 27 18" fill="none" xmlns="http://www.w3.org/2000/svg">
<path d="M10.875 8.15625C12.3281 7.40625 13.125 6.32812 13.125 4.6875C13.125 1.35938 10.6406 0.5625 7.82812 0.5625H0V17.1562H8.01562C11.0625 17.1562 13.875 15.7031 13.875 12.3281C13.875 10.2656 12.8906 8.71875 10.875 8.15625ZM3.60938 3.375H7.07812C8.39062 3.375 9.5625 3.75 9.5625 5.29688C9.5625 6.70312 8.625 7.26562 7.3125 7.26562H3.60938V3.375ZM7.54688 14.3438H3.60938V9.75H7.59375C9.23438 9.75 10.2188 10.4531 10.2188 12.1406C10.2188 13.8281 9 14.3438 7.54688 14.3438ZM24.3281 3.04688V1.40625H17.625V3.04688H24.3281ZM27 11.3438C27 7.78125 24.8906 4.78125 21.1406 4.78125C17.4375 4.78125 14.9531 7.54688 14.9531 11.1562C14.9531 14.9062 17.3438 17.4844 21.1406 17.4844C24 17.4844 25.875 16.1719 26.7656 13.4531H23.8594C23.5312 14.4844 22.2188 15 21.2344 15C19.3125 15 18.2812 13.875 18.2812 11.9531H26.9531C26.9531 11.7656 27 11.5312 27 11.3438ZM18.2812 9.84375C18.375 8.29688 19.4531 7.3125 21 7.3125C22.6875 7.3125 23.5312 8.25 23.6719 9.84375H18.2812Z" fill="#B2B2B2"/>
</svg>
