<svg width="24" height="26" viewBox="0 0 24 26" fill="none" xmlns="http://www.w3.org/2000/svg">
<path d="M23.5312 8.5L12.5625 1.1875C12.1875 0.953125 11.7656 0.953125 11.3906 1.1875L0.421875 8.5C0.140625 8.6875 0 9.01562 0 9.34375V16.6562C0 17.0312 0.140625 17.3594 0.421875 17.5469L11.3906 24.8594C11.7656 25.0938 12.1875 25.0938 12.5625 24.8594L23.5312 17.5469C23.8125 17.3594 24 17.0312 24 16.6562V9.34375C24 9.01562 23.8125 8.6875 23.5312 8.5ZM13.0312 4L21.0938 9.34375L17.4844 11.7812L13.0312 8.78125V4ZM10.9688 4V8.78125L6.46875 11.7812L2.85938 9.34375L10.9688 4ZM2.0625 11.3125L4.64062 13L2.0625 14.7344V11.3125ZM10.9688 22.0469L2.85938 16.6562L6.46875 14.2656L10.9688 17.2656V22.0469ZM12 15.4375L8.34375 13L12 10.5625L15.6094 13L12 15.4375ZM13.0312 22.0469V17.2656L17.4844 14.2656L21.0938 16.6562L13.0312 22.0469ZM21.9375 14.7344L19.3125 13L21.9375 11.3125V14.7344Z" fill="#B2B2B2"/>
</svg>
