<svg width="21" height="21" viewBox="0 0 21 21" fill="none" xmlns="http://www.w3.org/2000/svg">
<path d="M4.6875 21V6.98438H0.328125V21H4.6875ZM2.48438 5.10938C3.89062 5.10938 5.01562 3.9375 5.01562 2.53125C5.01562 1.17188 3.89062 0.046875 2.48438 0.046875C1.125 0.046875 0 1.17188 0 2.53125C0 3.9375 1.125 5.10938 2.48438 5.10938ZM20.9531 21H21V13.3125C21 9.5625 20.1562 6.65625 15.75 6.65625C13.6406 6.65625 12.2344 7.82812 11.625 8.90625H11.5781V6.98438H7.40625V21H11.7656V14.0625C11.7656 12.2344 12.0938 10.5 14.3438 10.5C16.5938 10.5 16.6406 12.5625 16.6406 14.2031V21H20.9531Z" fill="#B2B2B2"/>
</svg>
